HIERARCHY
ROOT hip
{
	OFFSET 0.000000 0.000000 0.000000 
	CHANNELS 6 Xposition Yposition Zposition Zrotation Xrotation Yrotation
	JOINT abdomen
	{
		OFFSET 0.000000 3.402643 0.000000 
		CHANNELS 3 Zrotation Xrotation Yrotation
		JOINT chest
		{
			OFFSET 0.000000 8.438565 -0.680529 
			CHANNELS 3 Zrotation Xrotation Yrotation
			JOINT neck
			{
				OFFSET 0.000000 10.207942 -0.272212 
				CHANNELS 3 Zrotation Xrotation Yrotation
				JOINT head
				{
					OFFSET 0.000000 3.130431 0.000000 
					CHANNELS 3 Zrotation Xrotation Yrotation
					End Site
					{
						OFFSET 0.000000 3.130435 0.000000 
					}
				}
			}
			JOINT lCollar
			{
				OFFSET 3.470700 6.669187 -0.816635 
				CHANNELS 3 Zrotation Xrotation Yrotation
				JOINT lShldr
				{
					OFFSET 3.198488 0.000000 0.000000 
					CHANNELS 3 Zrotation Xrotation Yrotation
					JOINT lForeArm
					{
						OFFSET 10.139888 0.000000 0.000000 
						CHANNELS 3 Zrotation Xrotation Yrotation
						JOINT lHand
						{
							OFFSET 8.370511 0.000000 0.000000 
							CHANNELS 3 Zrotation Xrotation Yrotation
							End Site
							{
								OFFSET 4.083176 0.000000 0.000000 
							}
						}
					}
				}
			}
			JOINT rCollar
			{
				OFFSET -3.470700 6.669187 -0.816635 
				CHANNELS 3 Zrotation Xrotation Yrotation
				JOINT rShldr
				{
					OFFSET -3.198488 0.000000 0.000000 
					CHANNELS 3 Zrotation Xrotation Yrotation
					JOINT rForeArm
					{
						OFFSET -10.139888 0.000000 0.000000 
						CHANNELS 3 Zrotation Xrotation Yrotation
						JOINT rHand
						{
							OFFSET -8.370511 0.000000 0.000000 
							CHANNELS 3 Zrotation Xrotation Yrotation
							End Site
							{
								OFFSET -4.083176 0.000000 0.000000 
							}
						}
					}
				}
			}
		}
	}
	JOINT lThigh
	{
		OFFSET 5.308129 -1.633274 1.361059 
		CHANNELS 3 Zrotation Xrotation Yrotation
		JOINT lShin
		{
			OFFSET -2.041588 -20.007561 0.000000 
			CHANNELS 3 Zrotation Xrotation Yrotation
			JOINT lFoot
			{
				OFFSET 0.000000 -19.190928 -1.224953 
				CHANNELS 3 Zrotation Xrotation Yrotation
				End Site
				{
					OFFSET 0.000000 -2.449906 4.627600 
				}
			}
		}
	}
	JOINT rThigh
	{
		OFFSET -5.308129 -1.633274 1.361059 
		CHANNELS 3 Zrotation Xrotation Yrotation
		JOINT rShin
		{
			OFFSET 2.041588 -20.007561 0.000000 
			CHANNELS 3 Zrotation Xrotation Yrotation
			JOINT rFoot
			{
				OFFSET 0.000000 -19.190928 -1.224953 
				CHANNELS 3 Zrotation Xrotation Yrotation
				End Site
				{
					OFFSET 0.000000 -2.449906 4.627600 
				}
			}
		}
	}
}
MOTION
Frames: 11
Frame Time: 0.033333
3.860284 44.925037 -1.852426 1.641274 1.610667 -1.677004 -1.495700 2.616292 -1.914387 -2.875971 -3.335651 -2.716796 0.810547 -0.029296 -0.155836 0.899644 -2.958619 -0.207312 -6.874580 -0.696848 -4.121388 -74.215836 16.755421 12.215565 -7.745514 3.148993 -3.572458 8.880414 -15.412400 -8.547736 5.469267 9.969682 -0.957681 70.828529 -1.411471 12.425708 3.921960 22.182463 16.806259 0.212212 4.879245 1.815283 0.196882 -7.117943 -13.125335 -3.963945 10.590693 -0.082853 -0.019368 -7.422848 18.080482 -4.040339 -11.174729 7.941961 -1.631892 7.127863 0.089939 4.212717 2.984335 -10.193043 
3.763163 39.452377 -2.400955 1.631297 1.327587 -1.649133 -0.973190 15.564275 1.354739 -4.185284 2.960850 -6.209212 0.820317 -0.195295 -0.163220 -0.224695 1.582020 -0.413719 -3.080191 -1.346432 3.384474 -75.253166 16.763977 19.461729 3.133981 4.670629 -24.514818 8.880414 -15.412400 -8.547736 6.633229 9.315037 -6.807150 69.531723 -1.405419 1.611812 2.576282 17.600931 34.131241 0.245584 3.159878 -1.147422 2.231509 -30.923466 -4.562372 -8.374278 58.645348 -1.342557 5.470182 -30.095282 15.241398 -0.838608 -35.423866 1.988244 -12.747227 56.525898 6.113925 7.074926 -21.263721 -5.291903 
3.578014 28.274490 -2.969039 1.650594 0.898065 -1.646691 -0.315367 29.882442 4.610249 -5.724744 10.155246 -9.789109 0.830093 -0.341767 -0.170829 -1.394749 6.150534 -0.426708 1.259200 -0.799932 11.512772 -76.354919 16.427832 27.448645 14.992306 -2.898363 -48.273151 8.880414 -15.412400 -8.547736 7.528467 8.573964 -12.930165 68.235657 -1.345802 -10.149313 4.122808 14.059906 53.566830 0.155228 1.598914 -3.874793 6.460838 -54.892353 7.015026 -169.499680 69.628006 155.840347 16.554430 -54.873230 19.977497 6.847627 -60.468750 1.441709 -144.733078 67.282005 135.500031 12.079421 -45.862026 3.470301 
3.411888 22.600653 -3.340630 1.641274 1.610667 -1.677004 0.391823 32.069702 4.333026 -5.929417 14.029107 -10.911288 0.810547 -0.029296 -0.155836 -0.566722 1.913970 -0.254606 3.675583 0.529360 10.291087 -75.421394 16.294546 28.559891 25.144018 -22.136581 -68.184723 8.880414 -15.412400 -8.547736 4.339752 9.912785 -10.450713 69.396225 -1.310948 -9.650988 5.611495 9.601617 67.572304 0.212212 4.879245 1.815283 21.420870 -62.564495 20.794704 -171.815979 52.809898 155.423523 23.028837 -60.633621 23.951750 13.890139 -69.536095 5.174171 -156.408279 52.616684 145.315598 16.726416 -51.610085 9.237088 
3.862398 35.277561 -3.711923 1.644520 3.943693 -1.802309 0.823317 13.436160 -0.845617 -4.029308 11.710065 -8.096935 0.713001 1.005777 -0.119938 3.201496 -14.763091 1.471433 4.868165 0.923335 -5.148780 -70.636124 16.862099 15.537283 30.357990 -48.636917 -74.801674 8.880414 -15.412400 -8.547736 -6.432768 10.981262 5.239128 73.129631 -1.240893 11.770376 4.831047 -1.342813 71.738686 -2.559131 14.699055 19.117264 16.091579 -48.161606 13.907884 -57.685577 82.193321 45.693707 3.693463 -39.864548 3.790505 2.540595 -51.471592 -0.204154 -71.197166 76.710983 63.406200 10.944766 -35.256981 3.864182 
3.806226 40.460506 -3.968429 2.501630 -2.068341 -2.194385 1.383172 -8.718199 -4.760777 -3.834621 6.674608 -3.752862 0.625385 2.011594 -0.070781 4.867694 -20.439978 2.611728 12.583879 -4.177201 -13.910399 -62.276344 16.362568 -13.720187 30.942850 -50.076271 -66.806297 8.880414 -15.412400 -8.547736 -17.723469 6.815576 13.277205 68.357994 -0.835947 37.153057 2.228562 -15.935854 71.670891 -4.026873 17.107489 23.754129 9.607503 -19.523924 3.656104 -7.218080 33.178059 0.956702 -3.499255 -9.415393 0.894570 -1.797953 -27.718340 2.916938 -10.565782 39.696613 5.569819 8.910642 -13.882781 0.515243 
3.020960 57.533577 -4.422178 1.641274 1.610667 -1.677004 2.342236 -17.291094 -2.906608 -7.052853 1.385926 -1.918394 0.810547 -0.029296 -0.155836 0.899644 -2.958619 -0.207312 27.482555 -9.281832 -2.737166 -54.947395 12.383892 -45.234932 14.374915 -27.791031 -41.720936 8.880414 -15.412400 -8.547736 -20.994450 7.086510 1.582372 53.287647 -0.457770 48.859516 2.827974 -23.568544 73.708916 0.212212 4.879245 1.815283 8.613924 -6.398772 1.474691 -4.738764 -3.442083 -1.742325 -6.037783 30.162470 3.340939 -1.604514 -11.568078 3.818789 0.615679 -2.177535 -0.101841 8.633792 38.359943 -8.105100 
2.478003 69.842209 -4.931936 1.496304 -27.423653 -0.121050 3.332890 -19.344662 -1.833787 -6.713315 -9.486487 -2.615314 1.874661 -11.663851 -0.392355 0.430978 -4.433468 -0.757700 14.624256 -6.401042 0.133127 -57.842857 14.701711 -32.792324 -2.003494 -16.056559 -34.220165 8.880414 -15.412400 -8.547736 -6.239512 8.420527 -4.400801 59.871178 -0.425273 51.017574 7.912458 -5.101447 71.292480 0.163599 1.565469 -4.318800 8.094525 7.500144 0.707052 -7.492621 31.934961 1.190808 -2.591737 30.263865 3.295464 -2.848707 9.540421 1.216142 -7.919957 30.474657 3.668385 6.587423 21.529779 -3.754743 
2.426667 75.520012 -5.915740 6.077479 -74.310661 5.218162 3.744126 -18.761515 -2.290333 -4.938894 -21.645580 -3.437799 3.167987 -23.707958 -0.130899 2.190074 -16.521778 -0.108972 -6.926703 -0.740876 -4.121011 -65.649277 17.224813 -2.126672 0.540189 -1.012682 -51.681107 8.880414 -15.412400 -8.547736 8.918781 9.297904 -2.446636 74.906700 -0.437856 49.474609 14.969061 16.156359 65.320000 0.212212 4.879245 1.815283 8.313791 19.127682 2.029174 -15.598936 55.214146 6.788517 -2.463562 25.213036 2.828845 -5.540561 43.102551 5.188286 -14.019865 48.933483 8.604563 6.663037 12.599456 -3.106185 
2.784320 78.028511 -7.715424 174.807510 -69.267815 173.863098 3.206597 -16.996363 -2.869853 -5.476720 -29.068232 -4.659261 3.483489 -26.207993 0.007273 2.682692 -19.462679 0.201507 -9.146348 1.077518 -6.902849 -67.752762 17.598667 8.783240 9.115981 -8.306756 -61.771629 18.761755 -18.490984 -16.324621 6.074098 9.880703 1.261184 77.562935 -0.275661 48.086689 15.968823 16.025366 64.124184 -0.095561 5.668164 5.214339 8.087579 21.571783 3.049423 -38.463692 74.438660 27.916422 3.444548 16.610153 1.235336 -9.955034 52.118797 8.623355 -24.979750 63.811478 18.833477 7.262550 11.740425 4.186801 
3.150099 78.893158 -9.597154 177.612427 -46.586479 176.634308 2.470870 -15.337963 -3.222594 -7.196772 -32.509106 -6.216291 3.167987 -23.707958 -0.130899 2.190074 -16.521778 -0.108972 -1.581480 -1.114474 -7.782292 -65.338394 18.013929 6.594094 12.603017 -22.231480 -62.300018 27.959633 -21.016060 -24.250080 -4.095627 8.650882 4.052445 73.806747 -0.717265 46.655167 12.834758 6.032489 65.732170 -0.227868 4.463516 5.356641 8.092517 17.982977 3.666381 -132.710999 76.693092 120.855644 10.441874 9.740768 1.000894 -10.766927 36.970856 7.143692 -68.387321 73.075851 60.386780 9.192370 12.024375 12.980717 
